:SAMPLES-PER-SECOND 30
:FULLY-SPECIFIED
:DEGREES
49
root  -25.2142 32.3687 1.2004 -135.357 75.9078 -152.384
RightUpLeg  -53.4241 -3.87223 18.4827
RightLeg  63.0999 4.48016 -13.6361
RightFoot  -27.9192 -0.305727 -2.33455
RightToes  5.82063e-011 -1.59028e-015 9.93923e-017
Spine  52.6561 -4.05301 5.67709
Spine1  -0.656533 -2.86869 11.2882
HEad  -61.3971 11.1463 3.2573
LeftShoulder1  9.93923e-017 0 1.22299e-017
LeftArm  19.6166 -18.268 -79.5624
LeftForeArm  -13.8132 -9.98236 -6.67047
LeftHand  0.451909 4.56292 8.04772
RightShoulder  1.98785e-016 -4.96962e-017 1.55301e-017
RightArm  35.5287 -8.2867 88.1619
RightForeArm  -55.9646 20.5057 -17.8995
RightHand  1.68318 -11.9917 -11.4421
LeftUpLeg  -8.56197 -14.5041 15.8432
LeftLeg  69.1533 -14.7873 -7.46163
LeftFoot  9.58853 1.42777 -6.8718
LeftToes  2.21007e-009 5.55039e-011 -9.07147e-011
50
root  -24.0576 33.3086 1.22306 -137.215 77.5312 -152.826
RightUpLeg  -47.1455 -3.98469 17.1866
RightLeg  58.7394 3.67993 -12.5069
RightFoot  -28.0216 -0.337599 -2.56362
RightToes  5.82063e-011 -1.59028e-015 9.93923e-017
Spine  50.427 -3.60617 6.04282
Spine1  0.178428 -2.17479 8.94592
HEad  -59.9831 8.84666 4.42628
LeftShoulder1  9.93923e-017 0 1.22299e-017
LeftArm  24.4455 -10.0135 -80.7467
LeftForeArm  -21.1465 -12.1642 -6.09558
LeftHand  0.480808 4.53808 6.67183
RightShoulder  1.98785e-016 -4.96962e-017 1.55301e-017
RightArm  31.5325 -5.90359 87.6438
RightForeArm  -50.7525 20.1613 -16.7544
RightHand  1.73888 -12.0562 -12.2702
LeftUpLeg  -14.0376 -13.6395 13.9753
LeftLeg  75.2131 -13.7326 -5.62167
LeftFoot  5.09594 0.992424 -5.96239
LeftToes  2.21007e-009 5.55039e-011 -9.07147e-011
51
root  -22.822 34.1938 1.2307 -139.883 79.4623 -153.862
RightUpLeg  -40.6716 -3.80743 15.502
RightLeg  54.4572 3.07771 -11.3023
RightFoot  -27.6718 -0.316047 -2.45696
RightToes  5.82063e-011 -1.59028e-015 9.93923e-017
Spine  48.0836 -2.83559 5.80201
Spine1  0.946681 -1.44325 6.85138
HEad  -58.3177 6.41359 5.37694
LeftShoulder1  9.93923e-017 0 1.22299e-017
LeftArm  28.3309 -1.82461 -81.3715
LeftForeArm  -24.4359 -13.7696 -5.35623
LeftHand  0.4791 4.33932 5.17643
RightShoulder  1.98785e-016 -4.96962e-017 1.55301e-017
RightArm  29.6888 -2.96278 87.1133
RightForeArm  -47.393 19.9942 -16.7466
RightHand  1.70016 -11.8345 -12.3975
LeftUpLeg  -19.5996 -12.6792 11.7442
LeftLeg  78.8858 -13.0841 -3.10184
LeftFoot  0.786046 0.614488 -4.91339
LeftToes  2.21007e-009 5.55039e-011 -9.07147e-011
52
root  -21.5065 35.0408 1.23217 -143.379 81.4205 -155.397
RightUpLeg  -33.7853 -3.4261 13.6371
RightLeg  50.1024 2.76638 -9.86881
RightFoot  -26.8069 -0.249785 -2.06226
RightToes  5.82063e-011 -1.59028e-015 9.93923e-017
Spine  45.9138 -1.85723 5.23882
Spine1  1.48643 -0.601388 5.00142
HEad  -56.1271 4.15553 6.20034
LeftShoulder1  9.93923e-017 0 1.22299e-017
LeftArm  30.629 6.09306 -81.5815
LeftForeArm  -26.2283 -14.814 -4.75888
LeftHand  0.563874 4.55042 3.15534
RightShoulder  1.98785e-016 -4.96962e-017 1.55301e-017
RightArm  29.588 0.103423 86.4388
RightForeArm  -46.5272 20.0303 -17.7825
RightHand  1.66264 -11.7215 -12.1111
LeftUpLeg  -24.8285 -11.8357 9.4898
LeftLeg  79.4754 -12.6107 0.0496449
LeftFoot  -2.46213 0.424042 -4.52736
LeftToes  2.21007e-009 5.55039e-011 -9.07147e-011
53
root  -20.1326 35.8191 1.20626 -146.036 83.076 -155.831
RightUpLeg  -26.5243 -3.08333 12.0591
RightLeg  45.4674 2.7091 -8.28696
RightFoot  -25.7152 -0.162744 -1.45697
RightToes  5.82063e-011 -1.59028e-015 9.93923e-017
Spine  43.9634 -0.964173 4.94412
Spine1  1.7811 0.358675 3.20627
HEad  -53.5624 2.08312 6.95928
LeftShoulder1  9.93923e-017 0 1.22299e-017
LeftArm  27.9631 14.018 -81.3317
LeftForeArm  -24.3597 -14.3674 -4.96969
LeftHand  0.713788 5.19289 0.762103
RightShoulder  1.98785e-016 -4.96962e-017 1.55301e-017
RightArm  30.2719 3.07291 85.5404
RightForeArm  -46.6013 20.2673 -19.2903
RightHand  1.6845 -11.8529 -12.0101
LeftUpLeg  -29.4433 -11.2207 7.70595
LeftLeg  76.9784 -11.9615 3.16068
LeftFoot  -4.924 0.301784 -4.25149
LeftToes  2.21007e-009 5.55039e-011 -9.07147e-011
54
root  -18.7066 36.4959 1.15444 -148.47 84.5358 -156.179
RightUpLeg  -19.3584 -2.88818 10.6268
RightLeg  40.5803 2.84383 -6.72
RightFoot  -24.4712 -0.0715927 -0.702124
RightToes  5.82063e-011 -1.59028e-015 9.93923e-017
Spine  41.8287 -0.107778 4.69844
Spine1  2.09606 1.29485 1.68046
HEad  -50.9831 0.0486797 7.46287
LeftShoulder1  9.93923e-017 0 1.22299e-017
LeftArm  20.0334 22.2067 -80.4983
LeftForeArm  -17.0627 -12.1097 -5.90359
LeftHand  0.814172 5.67339 -1.34421
RightShoulder  1.98785e-016 -4.96962e-017 1.55301e-017
RightArm  30.4869 6.02621 84.3548
RightForeArm  -45.4926 20.9159 -20.5983
RightHand  1.73016 -11.9887 -12.3656
LeftUpLeg  -33.324 -10.5871 6.24319
LeftLeg  71.7626 -10.898 5.36156
LeftFoot  -7.11278 0.180782 -3.64308
LeftToes  2.21007e-009 5.55039e-011 -9.07147e-011
55
root  -17.224 37.0759 1.08753 -153.573 85.9197 -159.485
RightUpLeg  -12.476 -2.73736 9.07963
RightLeg  35.5937 3.0459 -5.33687
RightFoot  -22.7481 -0.00477221 -0.045565
RightToes  5.82063e-011 -1.59028e-015 9.93923e-017
Spine  39.5158 0.776117 4.19977
Spine1  2.48897 2.10318 0.599915
HEad  -48.4952 -1.94796 7.51599
LeftShoulder1  9.93923e-017 0 1.22299e-017
LeftArm  13.0016 30.3816 -79.0568
LeftForeArm  -8.75638 -9.81483 -6.49731
LeftHand  0.830922 5.62512 -3.0248
RightShoulder  1.98785e-016 -4.96962e-017 1.55301e-017
RightArm  29.4814 8.93494 82.9105
RightForeArm  -42.9638 22.1257 -21.6247
RightHand  1.73692 -11.926 -12.7538
LeftUpLeg  -36.0403 -9.79374 4.75344
LeftLeg  63.8469 -9.34746 6.3555
LeftFoot  -8.60466 0.118177 -3.43799
LeftToes  2.21007e-009 5.55039e-011 -9.07147e-011
56
root  -15.6773 37.5348 0.995757 -160.794 87.2754 -165.368
RightUpLeg  -6.20826 -2.27521 7.57955
RightLeg  30.8971 3.15993 -4.27976
RightFoot  -20.5888 0.035622 0.548452
RightToes  5.82063e-011 -1.59028e-015 9.93923e-017
Spine  37.1138 1.56503 3.81631
Spine1  2.6842 2.87139 -0.483129
HEad  -46.1632 -3.67269 7.32267
LeftShoulder1  9.93923e-017 0 1.22299e-017
LeftArm  12.0925 37.8671 -76.8279
LeftForeArm  -4.57074 -9.03359 -6.53582
LeftHand  0.824885 5.36026 -4.60209
RightShoulder  1.98785e-016 -4.96962e-017 1.55301e-017
RightArm  27.4702 11.4279 81.4101
RightForeArm  -40.435 23.7576 -22.7691
RightHand  1.70721 -11.783 -12.7568
LeftUpLeg  -37.3957 -8.97371 3.30991
LeftLeg  53.1381 -7.5305 6.03549
LeftFoot  -7.93547 0.146282 -3.53563
LeftToes  2.21007e-009 5.55039e-011 -9.07147e-011
57
root  -14.047 37.8128 0.867263 171.446 88.7038 167.439
RightUpLeg  -1.06725 -1.1711 6.3591
RightLeg  26.903 3.19966 -3.52095
RightFoot  -18.6005 0.0837154 1.7569
RightToes  5.82063e-011 -1.59028e-015 9.93923e-017
Spine  34.3026 2.20664 3.99505
Spine1  2.51942 3.72652 -2.10592
HEad  -44.2572 -4.8761 7.25602
LeftShoulder1  9.93923e-017 0 1.22299e-017
LeftArm  15.2694 44.3182 -73.4119
LeftForeArm  -3.75542 -9.1097 -6.471
LeftHand  0.842119 5.30313 -6.05197
RightShoulder  1.98785e-016 -4.96962e-017 1.55301e-017
RightArm  24.947 13.2002 80.1329
RightForeArm  -38.5683 25.573 -24.0609
RightHand  1.70246 -11.7943 -12.6156
LeftUpLeg  -37.8592 -8.30651 2.26057
LeftLeg  40.4918 -6.43327 4.22448
LeftFoot  -4.11582 0.253142 -3.33134
LeftToes  2.21007e-009 5.55039e-011 -9.07147e-011
58
root  -12.3122 37.9123 0.70505 8.13901 89.6532 4.26605
RightUpLeg  3.46952 0.40803 5.32671
RightLeg  23.3761 3.21784 -2.90265
RightFoot  -16.8342 0.125554 3.85587
RightToes  5.82063e-011 -1.59028e-015 9.93923e-017
Spine  31.0592 2.67971 4.67593
Spine1  2.30986 4.54462 -4.15472
HEad  -42.8233 -5.60955 7.29786
LeftShoulder1  9.93923e-017 0 1.22299e-017
LeftArm  17.4484 49.7489 -68.7666
LeftForeArm  -2.27217 -8.60528 -6.53317
LeftHand  0.868922 5.44601 -6.98661
RightShoulder  1.98785e-016 -4.96962e-017 1.55301e-017
RightArm  22.8566 14.3856 79.3015
RightForeArm  -37.2492 27.17 -25.2213
RightHand  1.75065 -11.9841 -12.7813
LeftUpLeg  -37.7627 -7.90917 1.60328
LeftLeg  28.1256 -6.87766 1.76674
LeftFoot  0.750878 0.480545 -3.78425
LeftToes  2.21007e-009 5.55039e-011 -9.07147e-011
59
root  -10.4673 37.923 0.517768 43.2271 88.2105 39.9266
RightUpLeg  8.72227 1.77096 4.27089
RightLeg  19.5746 3.10885 -2.38692
RightFoot  -14.3146 0.0644084 6.02773
RightToes  5.82063e-011 -1.59028e-015 9.93923e-017
Spine  27.9792 2.90009 5.45739
Spine1  2.56086 5.14795 -6.15696
HEad  -41.4455 -6.18313 7.19096
LeftShoulder1  9.93923e-017 0 1.22299e-017
LeftArm  16.5785 53.8992 -63.4822
LeftForeArm  1.62759 -7.20353 -6.61273
LeftHand  0.889957 5.65507 -7.33221
RightShoulder  1.98785e-016 -4.96962e-017 1.55301e-017
RightArm  21.7851 15.1534 78.9134
RightForeArm  -36.2056 28.2135 -26.0141
RightHand  1.81313 -12.1743 -13.2067
LeftUpLeg  -36.8003 -7.58145 0.727673
LeftLeg  18.5491 -7.6986 0.159124
LeftFoot  2.51867 0.754681 -5.37704
LeftToes  2.21007e-009 5.55039e-011 -9.07147e-011
